# xmcd CD database file
#
# Track frame offsets:
#	150
#	11659
#	23581
#	39313
#	51375
#	63060
#	74944
#	88764
#	100385
#	113880
#	127297
#	142287
#	164114
#	184480
#	211816
#	240663
#
# Disc length: 4272 seconds
#
# Revision: 0
# Processed by: cddbd v1.4PL0 Copyright (c) Steve Scherf et al.
# Submitted via: CDex 1.50
#
DISCID=f910ae10
DTITLE=Chet Baker - A Dandy Line
DYEAR=2002
DGENRE=Jazz
TTITLE0=Love
TTITLE1=I'm Thru With Love
TTITLE2=You Don't Know What Love Is
TTITLE3=What A Difference A Day Made
TTITLE4=A Little Duet For Zoot And Chet
TTITLE5=Look For The Silver Lining
TTITLE6=But Not For Me
TTITLE7=Time After Time
TTITLE8=There Will Never Be Another You
TTITLE9=I Get Along Without You Very Well
TTITLE10=I Fall In Love Too Easily
TTITLE11=Carson City Stage
TTITLE12=Lullaby Of The Leaves
TTITLE13=Russ Job
TTITLE14=A Dandy Line
TTITLE15=All The Things You Are
EXTD=YEAR: 2002
EXTT0=
EXTT1=
EXTT2=
EXTT3=
EXTT4=
EXTT5=
EXTT6=
EXTT7=
EXTT8=
EXTT9=
EXTT10=
EXTT11=
EXTT12=
EXTT13=
EXTT14=
EXTT15=
PLAYORDER=
